<?xml version="1.0" encoding="UTF-8" standalone="no"?>
<!DOCTYPE svg PUBLIC "-//W3C//DTD SVG 1.1//EN" "http://www.w3.org/Graphics/SVG/1.1/DTD/svg11.dtd">
<svg width="100%" height="100%" viewBox="0 0 451 93" version="1.1" xmlns="http://www.w3.org/2000/svg" xmlns:xlink="http://www.w3.org/1999/xlink" xml:space="preserve" xmlns:serif="http://www.serif.com/" style="fill-rule:evenodd;clip-rule:evenodd;stroke-linejoin:round;stroke-miterlimit:2;">
    <g transform="matrix(1,0,0,1,-137.889,-207.694)">
        <g transform="matrix(1,0,0,1,-144.73,45.8066)">
            <g transform="matrix(144,0,0,144,278.962,249.075)">
                <path d="M0.368,-0.605C0.396,-0.602 0.42,-0.597 0.441,-0.589C0.463,-0.581 0.481,-0.571 0.496,-0.558C0.507,-0.541 0.516,-0.524 0.526,-0.505C0.535,-0.486 0.542,-0.466 0.547,-0.446C0.552,-0.425 0.555,-0.404 0.554,-0.383C0.554,-0.361 0.549,-0.34 0.54,-0.317C0.521,-0.294 0.498,-0.275 0.471,-0.26C0.444,-0.246 0.415,-0.234 0.384,-0.225C0.353,-0.215 0.32,-0.208 0.287,-0.201C0.253,-0.195 0.22,-0.188 0.188,-0.182C0.189,-0.167 0.189,-0.151 0.189,-0.134C0.189,-0.118 0.187,-0.101 0.184,-0.084C0.181,-0.068 0.177,-0.052 0.171,-0.036C0.165,-0.021 0.157,-0.006 0.147,0.007C0.136,0.007 0.125,0.008 0.113,0.011C0.102,0.014 0.091,0.017 0.082,0.019C0.077,0.016 0.073,0.014 0.07,0.011C0.066,0.009 0.061,0.007 0.055,0.007C0.056,0 0.054,-0.006 0.05,-0.013C0.045,-0.02 0.041,-0.027 0.036,-0.034C0.032,-0.041 0.028,-0.048 0.027,-0.055C0.025,-0.061 0.028,-0.067 0.036,-0.073C0.032,-0.078 0.029,-0.084 0.029,-0.091C0.034,-0.099 0.038,-0.109 0.042,-0.123C0.045,-0.137 0.048,-0.15 0.05,-0.164C0.053,-0.177 0.053,-0.189 0.052,-0.2C0.05,-0.211 0.044,-0.219 0.032,-0.225C0.033,-0.226 0.034,-0.227 0.036,-0.227C0.038,-0.227 0.04,-0.227 0.042,-0.228C0.037,-0.231 0.034,-0.237 0.033,-0.244C0.032,-0.251 0.029,-0.257 0.025,-0.263C0.027,-0.266 0.028,-0.269 0.028,-0.271C0.029,-0.274 0.031,-0.275 0.035,-0.274C0.033,-0.286 0.033,-0.297 0.036,-0.308C0.038,-0.318 0.041,-0.328 0.046,-0.337C0.05,-0.347 0.056,-0.356 0.063,-0.365C0.069,-0.374 0.075,-0.383 0.081,-0.393C0.086,-0.393 0.088,-0.393 0.089,-0.391C0.09,-0.389 0.092,-0.389 0.096,-0.392C0.104,-0.398 0.11,-0.405 0.113,-0.412C0.117,-0.419 0.118,-0.427 0.118,-0.437C0.123,-0.45 0.128,-0.464 0.135,-0.478C0.141,-0.492 0.148,-0.505 0.156,-0.517C0.164,-0.528 0.173,-0.539 0.182,-0.548C0.192,-0.557 0.201,-0.564 0.212,-0.568C0.22,-0.575 0.229,-0.581 0.241,-0.586C0.253,-0.592 0.266,-0.596 0.279,-0.599C0.293,-0.602 0.307,-0.604 0.321,-0.604C0.335,-0.604 0.348,-0.603 0.359,-0.6C0.363,-0.598 0.364,-0.599 0.365,-0.602C0.365,-0.604 0.366,-0.605 0.368,-0.605ZM0.328,-0.372C0.344,-0.379 0.362,-0.385 0.38,-0.389C0.399,-0.393 0.414,-0.401 0.427,-0.413C0.419,-0.42 0.408,-0.427 0.393,-0.432C0.378,-0.438 0.361,-0.441 0.344,-0.442C0.326,-0.444 0.308,-0.442 0.291,-0.438C0.273,-0.434 0.257,-0.426 0.244,-0.414C0.24,-0.402 0.237,-0.393 0.234,-0.386C0.232,-0.379 0.228,-0.371 0.224,-0.361C0.225,-0.358 0.227,-0.356 0.23,-0.354C0.233,-0.352 0.235,-0.35 0.236,-0.347C0.251,-0.354 0.266,-0.359 0.282,-0.36C0.297,-0.361 0.313,-0.365 0.328,-0.372Z" style="fill-rule:nonzero;"/>
            </g>
            <g transform="matrix(144,0,0,144,354.478,249.075)">
                <path d="M0.157,-0.102C0.15,-0.076 0.144,-0.056 0.138,-0.042C0.133,-0.029 0.124,-0.015 0.113,-0.001C0.105,-0.002 0.099,-0.001 0.096,0.002C0.092,0.005 0.089,0.008 0.085,0.011C0.079,0.012 0.075,0.012 0.072,0.011C0.07,0.009 0.067,0.008 0.065,0.006C0.063,0.005 0.061,0.003 0.058,0.001C0.055,-0 0.051,-0.001 0.045,-0.001C0.044,-0.006 0.042,-0.011 0.041,-0.016C0.039,-0.02 0.035,-0.022 0.027,-0.021C0.029,-0.026 0.029,-0.03 0.028,-0.034C0.028,-0.037 0.027,-0.041 0.026,-0.043C0.025,-0.046 0.024,-0.049 0.023,-0.052C0.023,-0.055 0.023,-0.059 0.024,-0.063C0.021,-0.063 0.019,-0.066 0.017,-0.07C0.015,-0.075 0.012,-0.079 0.01,-0.084C0.012,-0.096 0.014,-0.107 0.016,-0.117C0.018,-0.128 0.02,-0.137 0.023,-0.146C0.026,-0.156 0.028,-0.165 0.03,-0.174C0.032,-0.183 0.031,-0.192 0.027,-0.202C0.03,-0.2 0.032,-0.201 0.033,-0.204C0.035,-0.207 0.035,-0.21 0.036,-0.215C0.037,-0.22 0.037,-0.225 0.037,-0.23C0.037,-0.235 0.037,-0.239 0.036,-0.242C0.043,-0.259 0.048,-0.277 0.052,-0.294C0.056,-0.312 0.06,-0.33 0.064,-0.348C0.068,-0.365 0.071,-0.382 0.075,-0.399C0.079,-0.416 0.084,-0.432 0.091,-0.446C0.098,-0.448 0.106,-0.447 0.115,-0.444C0.124,-0.441 0.129,-0.437 0.131,-0.433C0.148,-0.446 0.163,-0.461 0.176,-0.48C0.189,-0.499 0.202,-0.517 0.216,-0.534C0.229,-0.552 0.245,-0.567 0.261,-0.581C0.278,-0.595 0.299,-0.603 0.324,-0.605C0.337,-0.596 0.352,-0.586 0.368,-0.576C0.384,-0.566 0.397,-0.552 0.407,-0.536C0.412,-0.534 0.417,-0.531 0.42,-0.528C0.424,-0.525 0.428,-0.522 0.434,-0.519L0.434,-0.507C0.441,-0.5 0.448,-0.491 0.453,-0.482C0.458,-0.472 0.462,-0.462 0.466,-0.452C0.47,-0.441 0.474,-0.43 0.478,-0.419C0.481,-0.409 0.486,-0.398 0.491,-0.389C0.49,-0.385 0.489,-0.383 0.489,-0.38C0.489,-0.378 0.49,-0.376 0.491,-0.373C0.492,-0.37 0.493,-0.368 0.493,-0.365C0.494,-0.363 0.494,-0.359 0.493,-0.354C0.491,-0.326 0.482,-0.303 0.465,-0.285C0.449,-0.268 0.429,-0.253 0.405,-0.242C0.382,-0.23 0.357,-0.221 0.33,-0.213C0.303,-0.205 0.279,-0.197 0.258,-0.188C0.258,-0.185 0.259,-0.184 0.261,-0.184C0.264,-0.184 0.264,-0.182 0.264,-0.179C0.279,-0.169 0.292,-0.161 0.301,-0.155C0.31,-0.149 0.319,-0.145 0.327,-0.141C0.335,-0.137 0.344,-0.133 0.353,-0.13C0.362,-0.127 0.376,-0.124 0.393,-0.12C0.41,-0.116 0.423,-0.113 0.432,-0.111C0.442,-0.109 0.45,-0.107 0.458,-0.105C0.466,-0.103 0.474,-0.102 0.482,-0.101C0.49,-0.1 0.502,-0.099 0.517,-0.098C0.522,-0.092 0.528,-0.085 0.532,-0.077C0.536,-0.069 0.539,-0.06 0.54,-0.052C0.541,-0.044 0.542,-0.036 0.541,-0.029C0.54,-0.021 0.538,-0.015 0.534,-0.011C0.535,-0.009 0.536,-0.008 0.539,-0.008C0.541,-0.009 0.543,-0.008 0.546,-0.008C0.542,-0.005 0.539,-0.002 0.536,0.002C0.534,0.006 0.531,0.01 0.528,0.014C0.526,0.018 0.523,0.021 0.52,0.024C0.516,0.027 0.512,0.029 0.506,0.029C0.486,0.037 0.46,0.038 0.43,0.031C0.399,0.024 0.36,0.011 0.313,-0.007C0.29,-0.016 0.271,-0.024 0.256,-0.031C0.242,-0.038 0.229,-0.044 0.218,-0.051C0.208,-0.058 0.198,-0.065 0.189,-0.073C0.18,-0.081 0.17,-0.09 0.157,-0.102ZM0.297,-0.437C0.29,-0.426 0.282,-0.417 0.273,-0.408C0.264,-0.4 0.256,-0.391 0.248,-0.382C0.239,-0.374 0.232,-0.364 0.226,-0.353C0.219,-0.342 0.215,-0.33 0.212,-0.315C0.235,-0.318 0.258,-0.324 0.283,-0.334C0.308,-0.345 0.331,-0.354 0.354,-0.363C0.351,-0.383 0.344,-0.4 0.333,-0.412C0.321,-0.424 0.309,-0.433 0.297,-0.437Z" style="fill-rule:nonzero;"/>
            </g>
            <g transform="matrix(144,0,0,144,432.384,249.075)">
                <path d="M0.545,-0.55C0.546,-0.545 0.546,-0.542 0.545,-0.54C0.545,-0.537 0.545,-0.535 0.544,-0.533C0.544,-0.531 0.544,-0.529 0.544,-0.527C0.544,-0.525 0.545,-0.521 0.546,-0.517C0.532,-0.494 0.516,-0.479 0.499,-0.471C0.481,-0.463 0.461,-0.457 0.44,-0.454C0.42,-0.45 0.398,-0.446 0.376,-0.442C0.355,-0.438 0.333,-0.43 0.312,-0.417C0.303,-0.42 0.295,-0.42 0.289,-0.417C0.282,-0.414 0.272,-0.413 0.259,-0.414C0.255,-0.41 0.25,-0.407 0.244,-0.406C0.238,-0.404 0.232,-0.402 0.227,-0.4C0.229,-0.395 0.23,-0.389 0.23,-0.382C0.23,-0.376 0.23,-0.371 0.232,-0.367C0.255,-0.365 0.28,-0.366 0.308,-0.368C0.336,-0.371 0.363,-0.372 0.39,-0.373C0.39,-0.37 0.39,-0.368 0.389,-0.367C0.387,-0.366 0.387,-0.364 0.388,-0.361C0.392,-0.358 0.397,-0.354 0.401,-0.349C0.406,-0.344 0.41,-0.34 0.415,-0.335C0.42,-0.33 0.424,-0.327 0.429,-0.324C0.434,-0.321 0.44,-0.32 0.446,-0.32C0.449,-0.315 0.451,-0.309 0.452,-0.303C0.453,-0.297 0.452,-0.291 0.449,-0.284C0.439,-0.277 0.428,-0.27 0.418,-0.262C0.408,-0.255 0.397,-0.248 0.385,-0.242C0.374,-0.236 0.362,-0.232 0.349,-0.228C0.336,-0.224 0.322,-0.223 0.307,-0.224L0.299,-0.224C0.298,-0.224 0.296,-0.225 0.293,-0.227C0.288,-0.223 0.28,-0.222 0.271,-0.224C0.262,-0.225 0.254,-0.224 0.249,-0.221C0.242,-0.224 0.233,-0.225 0.223,-0.225C0.213,-0.225 0.204,-0.226 0.196,-0.229C0.186,-0.215 0.176,-0.2 0.168,-0.185C0.16,-0.169 0.152,-0.152 0.146,-0.135C0.168,-0.132 0.186,-0.13 0.201,-0.131C0.215,-0.132 0.229,-0.133 0.242,-0.134C0.255,-0.136 0.269,-0.138 0.282,-0.139C0.296,-0.141 0.313,-0.141 0.334,-0.141C0.347,-0.148 0.362,-0.153 0.38,-0.155C0.398,-0.157 0.415,-0.161 0.43,-0.166C0.435,-0.164 0.439,-0.161 0.443,-0.156C0.447,-0.151 0.451,-0.146 0.455,-0.142C0.458,-0.138 0.462,-0.134 0.466,-0.131C0.47,-0.128 0.475,-0.126 0.48,-0.127C0.483,-0.124 0.485,-0.121 0.486,-0.118C0.487,-0.114 0.488,-0.111 0.488,-0.107C0.489,-0.104 0.49,-0.101 0.492,-0.099C0.493,-0.097 0.496,-0.096 0.5,-0.097C0.49,-0.075 0.479,-0.059 0.466,-0.047C0.454,-0.036 0.439,-0.027 0.423,-0.021C0.407,-0.016 0.389,-0.011 0.369,-0.008C0.349,-0.005 0.327,-0.001 0.303,0.004C0.297,0.005 0.292,0.005 0.288,0.003C0.284,0.002 0.28,0.001 0.274,0.001C0.259,0.004 0.242,0.007 0.221,0.01C0.2,0.012 0.179,0.013 0.157,0.013C0.136,0.012 0.115,0.009 0.096,0.004C0.076,-0 0.06,-0.009 0.048,-0.021C0.043,-0.026 0.039,-0.031 0.038,-0.038C0.036,-0.044 0.032,-0.049 0.024,-0.052C0.024,-0.06 0.022,-0.07 0.021,-0.08C0.019,-0.09 0.017,-0.101 0.015,-0.113C0.013,-0.124 0.011,-0.135 0.01,-0.146C0.009,-0.158 0.01,-0.168 0.012,-0.177C0.014,-0.187 0.018,-0.195 0.024,-0.203C0.03,-0.211 0.032,-0.219 0.03,-0.229C0.034,-0.229 0.035,-0.231 0.036,-0.234C0.037,-0.237 0.039,-0.238 0.044,-0.237C0.048,-0.249 0.052,-0.26 0.057,-0.271C0.061,-0.281 0.066,-0.291 0.071,-0.301C0.076,-0.311 0.081,-0.32 0.085,-0.331C0.09,-0.341 0.095,-0.352 0.1,-0.364C0.09,-0.373 0.084,-0.382 0.08,-0.392C0.075,-0.402 0.072,-0.412 0.07,-0.422C0.068,-0.432 0.067,-0.443 0.065,-0.454C0.064,-0.464 0.062,-0.475 0.059,-0.486C0.065,-0.496 0.073,-0.504 0.083,-0.51C0.092,-0.516 0.102,-0.521 0.113,-0.525C0.124,-0.529 0.136,-0.533 0.149,-0.535C0.162,-0.538 0.176,-0.541 0.19,-0.544C0.216,-0.552 0.24,-0.559 0.26,-0.563C0.281,-0.568 0.301,-0.572 0.321,-0.575C0.341,-0.578 0.361,-0.58 0.383,-0.583C0.404,-0.586 0.429,-0.59 0.456,-0.595C0.462,-0.589 0.467,-0.586 0.473,-0.586C0.475,-0.592 0.478,-0.594 0.482,-0.591C0.486,-0.589 0.487,-0.591 0.486,-0.597C0.493,-0.586 0.501,-0.576 0.511,-0.569C0.521,-0.561 0.533,-0.555 0.545,-0.55Z" style="fill-rule:nonzero;"/>
            </g>
            <g transform="matrix(144,0,0,144,507.478,249.075)">
                <path d="M0.481,-0.264C0.481,-0.26 0.48,-0.258 0.479,-0.255C0.479,-0.253 0.478,-0.251 0.478,-0.249C0.477,-0.247 0.477,-0.245 0.477,-0.242L0.477,-0.23C0.457,-0.196 0.432,-0.167 0.403,-0.144C0.373,-0.12 0.341,-0.099 0.305,-0.082C0.27,-0.064 0.233,-0.047 0.194,-0.033C0.156,-0.018 0.118,-0.002 0.082,0.015C0.066,0.011 0.055,0.004 0.046,-0.005C0.038,-0.014 0.032,-0.025 0.028,-0.037C0.024,-0.049 0.021,-0.062 0.019,-0.077C0.017,-0.091 0.016,-0.106 0.015,-0.122C0.017,-0.129 0.019,-0.135 0.023,-0.14C0.027,-0.145 0.028,-0.152 0.028,-0.161C0.034,-0.178 0.039,-0.195 0.044,-0.211C0.049,-0.227 0.052,-0.244 0.054,-0.261C0.056,-0.266 0.059,-0.27 0.064,-0.271C0.068,-0.303 0.068,-0.334 0.065,-0.367C0.062,-0.399 0.057,-0.429 0.049,-0.457C0.049,-0.464 0.05,-0.468 0.051,-0.471C0.052,-0.474 0.052,-0.476 0.051,-0.478C0.05,-0.483 0.052,-0.485 0.056,-0.485L0.069,-0.485C0.069,-0.495 0.068,-0.505 0.064,-0.515C0.06,-0.524 0.057,-0.535 0.054,-0.548C0.058,-0.558 0.061,-0.567 0.063,-0.577C0.064,-0.586 0.067,-0.594 0.071,-0.602C0.106,-0.59 0.14,-0.577 0.172,-0.562C0.205,-0.546 0.236,-0.535 0.268,-0.527C0.291,-0.51 0.315,-0.494 0.34,-0.477C0.365,-0.46 0.387,-0.442 0.407,-0.422C0.427,-0.403 0.444,-0.38 0.458,-0.354C0.472,-0.329 0.479,-0.299 0.481,-0.264ZM0.25,-0.21C0.264,-0.215 0.277,-0.221 0.291,-0.227C0.304,-0.232 0.316,-0.239 0.328,-0.247C0.339,-0.254 0.349,-0.263 0.358,-0.272C0.368,-0.282 0.375,-0.294 0.381,-0.308C0.377,-0.315 0.372,-0.322 0.365,-0.329C0.359,-0.335 0.352,-0.341 0.346,-0.346C0.339,-0.352 0.333,-0.357 0.327,-0.363C0.32,-0.369 0.315,-0.376 0.312,-0.385C0.303,-0.386 0.296,-0.389 0.289,-0.392C0.283,-0.396 0.276,-0.399 0.27,-0.403C0.264,-0.406 0.257,-0.41 0.25,-0.413C0.244,-0.416 0.236,-0.418 0.227,-0.419C0.212,-0.426 0.199,-0.431 0.188,-0.435C0.177,-0.438 0.168,-0.442 0.162,-0.447C0.158,-0.447 0.154,-0.446 0.151,-0.444C0.158,-0.42 0.163,-0.396 0.166,-0.375C0.169,-0.353 0.171,-0.331 0.171,-0.309C0.172,-0.287 0.171,-0.265 0.168,-0.242C0.165,-0.219 0.162,-0.195 0.157,-0.168C0.164,-0.169 0.17,-0.17 0.175,-0.172C0.181,-0.175 0.186,-0.177 0.192,-0.18C0.197,-0.182 0.203,-0.185 0.209,-0.187C0.216,-0.189 0.223,-0.191 0.231,-0.191C0.233,-0.195 0.236,-0.199 0.24,-0.201C0.243,-0.204 0.247,-0.207 0.25,-0.21Z" style="fill-rule:nonzero;"/>
            </g>
            <g transform="matrix(144,0,0,144,577.65,249.075)">
                <path d="M0.545,-0.55C0.546,-0.545 0.546,-0.542 0.545,-0.54C0.545,-0.537 0.545,-0.535 0.544,-0.533C0.544,-0.531 0.544,-0.529 0.544,-0.527C0.544,-0.525 0.545,-0.521 0.546,-0.517C0.532,-0.494 0.516,-0.479 0.499,-0.471C0.481,-0.463 0.461,-0.457 0.44,-0.454C0.42,-0.45 0.398,-0.446 0.376,-0.442C0.355,-0.438 0.333,-0.43 0.312,-0.417C0.303,-0.42 0.295,-0.42 0.289,-0.417C0.282,-0.414 0.272,-0.413 0.259,-0.414C0.255,-0.41 0.25,-0.407 0.244,-0.406C0.238,-0.404 0.232,-0.402 0.227,-0.4C0.229,-0.395 0.23,-0.389 0.23,-0.382C0.23,-0.376 0.23,-0.371 0.232,-0.367C0.255,-0.365 0.28,-0.366 0.308,-0.368C0.336,-0.371 0.363,-0.372 0.39,-0.373C0.39,-0.37 0.39,-0.368 0.389,-0.367C0.387,-0.366 0.387,-0.364 0.388,-0.361C0.392,-0.358 0.397,-0.354 0.401,-0.349C0.406,-0.344 0.41,-0.34 0.415,-0.335C0.42,-0.33 0.424,-0.327 0.429,-0.324C0.434,-0.321 0.44,-0.32 0.446,-0.32C0.449,-0.315 0.451,-0.309 0.452,-0.303C0.453,-0.297 0.452,-0.291 0.449,-0.284C0.439,-0.277 0.428,-0.27 0.418,-0.262C0.408,-0.255 0.397,-0.248 0.385,-0.242C0.374,-0.236 0.362,-0.232 0.349,-0.228C0.336,-0.224 0.322,-0.223 0.307,-0.224L0.299,-0.224C0.298,-0.224 0.296,-0.225 0.293,-0.227C0.288,-0.223 0.28,-0.222 0.271,-0.224C0.262,-0.225 0.254,-0.224 0.249,-0.221C0.242,-0.224 0.233,-0.225 0.223,-0.225C0.213,-0.225 0.204,-0.226 0.196,-0.229C0.186,-0.215 0.176,-0.2 0.168,-0.185C0.16,-0.169 0.152,-0.152 0.146,-0.135C0.168,-0.132 0.186,-0.13 0.201,-0.131C0.215,-0.132 0.229,-0.133 0.242,-0.134C0.255,-0.136 0.269,-0.138 0.282,-0.139C0.296,-0.141 0.313,-0.141 0.334,-0.141C0.347,-0.148 0.362,-0.153 0.38,-0.155C0.398,-0.157 0.415,-0.161 0.43,-0.166C0.435,-0.164 0.439,-0.161 0.443,-0.156C0.447,-0.151 0.451,-0.146 0.455,-0.142C0.458,-0.138 0.462,-0.134 0.466,-0.131C0.47,-0.128 0.475,-0.126 0.48,-0.127C0.483,-0.124 0.485,-0.121 0.486,-0.118C0.487,-0.114 0.488,-0.111 0.488,-0.107C0.489,-0.104 0.49,-0.101 0.492,-0.099C0.493,-0.097 0.496,-0.096 0.5,-0.097C0.49,-0.075 0.479,-0.059 0.466,-0.047C0.454,-0.036 0.439,-0.027 0.423,-0.021C0.407,-0.016 0.389,-0.011 0.369,-0.008C0.349,-0.005 0.327,-0.001 0.303,0.004C0.297,0.005 0.292,0.005 0.288,0.003C0.284,0.002 0.28,0.001 0.274,0.001C0.259,0.004 0.242,0.007 0.221,0.01C0.2,0.012 0.179,0.013 0.157,0.013C0.136,0.012 0.115,0.009 0.096,0.004C0.076,-0 0.06,-0.009 0.048,-0.021C0.043,-0.026 0.039,-0.031 0.038,-0.038C0.036,-0.044 0.032,-0.049 0.024,-0.052C0.024,-0.06 0.022,-0.07 0.021,-0.08C0.019,-0.09 0.017,-0.101 0.015,-0.113C0.013,-0.124 0.011,-0.135 0.01,-0.146C0.009,-0.158 0.01,-0.168 0.012,-0.177C0.014,-0.187 0.018,-0.195 0.024,-0.203C0.03,-0.211 0.032,-0.219 0.03,-0.229C0.034,-0.229 0.035,-0.231 0.036,-0.234C0.037,-0.237 0.039,-0.238 0.044,-0.237C0.048,-0.249 0.052,-0.26 0.057,-0.271C0.061,-0.281 0.066,-0.291 0.071,-0.301C0.076,-0.311 0.081,-0.32 0.085,-0.331C0.09,-0.341 0.095,-0.352 0.1,-0.364C0.09,-0.373 0.084,-0.382 0.08,-0.392C0.075,-0.402 0.072,-0.412 0.07,-0.422C0.068,-0.432 0.067,-0.443 0.065,-0.454C0.064,-0.464 0.062,-0.475 0.059,-0.486C0.065,-0.496 0.073,-0.504 0.083,-0.51C0.092,-0.516 0.102,-0.521 0.113,-0.525C0.124,-0.529 0.136,-0.533 0.149,-0.535C0.162,-0.538 0.176,-0.541 0.19,-0.544C0.216,-0.552 0.24,-0.559 0.26,-0.563C0.281,-0.568 0.301,-0.572 0.321,-0.575C0.341,-0.578 0.361,-0.58 0.383,-0.583C0.404,-0.586 0.429,-0.59 0.456,-0.595C0.462,-0.589 0.467,-0.586 0.473,-0.586C0.475,-0.592 0.478,-0.594 0.482,-0.591C0.486,-0.589 0.487,-0.591 0.486,-0.597C0.493,-0.586 0.501,-0.576 0.511,-0.569C0.521,-0.561 0.533,-0.555 0.545,-0.55Z" style="fill-rule:nonzero;"/>
            </g>
            <g transform="matrix(144,0,0,144,652.744,249.075)">
                <path d="M0.325,-0.172C0.325,-0.163 0.322,-0.154 0.319,-0.146C0.315,-0.138 0.311,-0.13 0.306,-0.123C0.3,-0.115 0.295,-0.108 0.289,-0.101C0.282,-0.094 0.276,-0.088 0.271,-0.083C0.272,-0.075 0.273,-0.068 0.271,-0.064C0.269,-0.06 0.269,-0.053 0.27,-0.045C0.26,-0.019 0.245,-0.001 0.225,0.007C0.205,0.016 0.187,0.014 0.169,0.002C0.162,-0.003 0.156,-0.01 0.151,-0.018C0.146,-0.026 0.139,-0.031 0.131,-0.033C0.133,-0.044 0.132,-0.055 0.128,-0.066C0.124,-0.077 0.12,-0.083 0.115,-0.084C0.113,-0.098 0.11,-0.112 0.106,-0.128C0.103,-0.144 0.099,-0.159 0.096,-0.175C0.092,-0.191 0.09,-0.207 0.087,-0.222C0.085,-0.237 0.084,-0.252 0.085,-0.265C0.086,-0.271 0.084,-0.277 0.082,-0.282C0.079,-0.287 0.076,-0.294 0.075,-0.301C0.073,-0.316 0.072,-0.332 0.073,-0.348C0.074,-0.365 0.074,-0.381 0.074,-0.396C0.074,-0.41 0.073,-0.425 0.072,-0.442C0.07,-0.458 0.069,-0.474 0.067,-0.49C0.066,-0.505 0.065,-0.519 0.065,-0.532C0.065,-0.544 0.067,-0.554 0.07,-0.562C0.074,-0.569 0.08,-0.576 0.086,-0.581C0.093,-0.585 0.1,-0.591 0.105,-0.597C0.12,-0.595 0.131,-0.59 0.14,-0.579C0.148,-0.569 0.151,-0.559 0.149,-0.55C0.163,-0.541 0.174,-0.53 0.182,-0.517C0.19,-0.504 0.197,-0.489 0.202,-0.472C0.207,-0.456 0.21,-0.438 0.212,-0.419C0.214,-0.401 0.215,-0.383 0.217,-0.365C0.218,-0.347 0.219,-0.33 0.221,-0.313C0.222,-0.297 0.225,-0.283 0.229,-0.271C0.253,-0.306 0.273,-0.337 0.289,-0.364C0.305,-0.391 0.322,-0.417 0.339,-0.441C0.356,-0.466 0.375,-0.491 0.396,-0.517C0.416,-0.542 0.443,-0.571 0.477,-0.603C0.483,-0.602 0.488,-0.601 0.493,-0.599C0.497,-0.597 0.501,-0.595 0.504,-0.594C0.507,-0.592 0.511,-0.591 0.516,-0.59C0.52,-0.589 0.526,-0.59 0.534,-0.591C0.537,-0.584 0.539,-0.58 0.54,-0.577C0.541,-0.574 0.542,-0.571 0.543,-0.568C0.544,-0.565 0.546,-0.561 0.547,-0.557C0.549,-0.552 0.552,-0.546 0.556,-0.537C0.558,-0.535 0.558,-0.533 0.558,-0.529C0.557,-0.526 0.556,-0.523 0.556,-0.52C0.556,-0.517 0.556,-0.515 0.556,-0.514C0.556,-0.512 0.557,-0.512 0.561,-0.514C0.559,-0.505 0.555,-0.496 0.55,-0.489C0.545,-0.481 0.543,-0.472 0.544,-0.462C0.529,-0.442 0.513,-0.422 0.495,-0.401C0.477,-0.381 0.459,-0.359 0.441,-0.337C0.423,-0.315 0.406,-0.292 0.39,-0.267C0.373,-0.243 0.359,-0.217 0.348,-0.19C0.344,-0.19 0.342,-0.189 0.34,-0.188L0.332,-0.175C0.33,-0.173 0.328,-0.172 0.325,-0.172Z" style="fill-rule:nonzero;"/>
            </g>
        </g>
    </g>
</svg>
